<svg id="Capa_1" enable-background="new 0 0 512 512" height="512" viewBox="0 0 512 512" width="512" xmlns="http://www.w3.org/2000/svg"><g><path d="m256 94.267c-89.18 0-161.734 72.553-161.734 161.733s72.554 161.733 161.734 161.733 161.732-72.553 161.732-161.733-72.552-161.733-161.732-161.733zm90.885 139.012-90.887 90.885c-12.547 12.549-32.893 12.55-45.441 0l-45.443-45.443c-12.549-12.548-12.549-32.893 0-45.441 12.547-12.55 32.893-12.55 45.443 0l22.72 22.72 68.164-68.164c12.549-12.55 32.895-12.55 45.443 0 12.551 12.549 12.55 32.893.001 45.443z"/><path d="m437.02 74.981c-48.352-48.352-112.641-74.981-181.02-74.981-68.381 0-132.668 26.629-181.02 74.981-48.351 48.352-74.98 112.639-74.98 181.019s26.629 132.667 74.98 181.02c48.352 48.351 112.639 74.98 181.02 74.98 68.379 0 132.668-26.629 181.02-74.98 48.351-48.353 74.98-112.64 74.98-181.02s-26.629-132.667-74.98-181.019zm-181.02 372.752c-105.723 0-191.734-86.012-191.734-191.733s86.011-191.733 191.734-191.733 191.732 86.011 191.732 191.733-86.009 191.733-191.732 191.733z"/></g></svg>